# xmcd
#
# Track frame offsets: 
#        183
#        12640
#        28228
#        40210
#        70255
#        80978
#        94555
#        104183
#        125043
#        180375
#
# Disc length: 2556 seconds
#
# Revision: 3
# Processed by: cddbd v1.5.2PL0 Copyright (c) Steve Scherf et al.
# Submitted via: ExactAudioCopyFreeDBPlugin 1.0
#
DISCID=8f09fa0a
DTITLE=McKenna Mendelson Mainline - Stink
DYEAR=1969
DGENRE=Blues
TTITLE0=One Way Ticket
TTITLE1=She's Alright
TTITLE2=Beltmaker
TTITLE3=Mainline
TTITLE4=Think I'm Losing My Marbles
TTITLE5=Drive You
TTITLE6=T.B. Blues
TTITLE7=Better Watch Out
TTITLE8=Bad Women
TTITLE9=Don't Give Me No Goose for Christmas, Grandma
EXTD=
EXTT0=
EXTT1=
EXTT2=
EXTT3=
EXTT4=
EXTT5=
EXTT6=
EXTT7=
EXTT8=
EXTT9=
PLAYORDER=
